<mxfile host="app.diagrams.net" agent="Mozilla/5.0 (Windows NT 10.0; Win64; x64) AppleWebKit/537.36 (KHTML, like Gecko) Chrome/138.0.0.0 Safari/537.36" version="28.0.7">
  <diagram name="Page-1" id="LL6WlidWeudZzD7RuTxP">
    <mxGraphModel dx="1042" dy="510" grid="1" gridSize="10" guides="1" tooltips="1" connect="1" arrows="1" fold="1" page="1" pageScale="1" pageWidth="850" pageHeight="1100" math="0" shadow="0">
      <root>
        <mxCell id="0" />
        <mxCell id="1" parent="0" />
        <mxCell id="TnObYNsA2F8wjeoy1vqR-2" style="edgeStyle=orthogonalEdgeStyle;rounded=0;orthogonalLoop=1;jettySize=auto;html=1;" edge="1" parent="1" source="TnObYNsA2F8wjeoy1vqR-1">
          <mxGeometry relative="1" as="geometry">
            <mxPoint x="115" y="120" as="targetPoint" />
          </mxGeometry>
        </mxCell>
        <mxCell id="TnObYNsA2F8wjeoy1vqR-1" value="Start" style="ellipse;whiteSpace=wrap;html=1;fillColor=#ffe6cc;strokeColor=#d79b00;" vertex="1" parent="1">
          <mxGeometry x="30" y="10" width="170" height="80" as="geometry" />
        </mxCell>
        <mxCell id="TnObYNsA2F8wjeoy1vqR-4" style="edgeStyle=orthogonalEdgeStyle;rounded=0;orthogonalLoop=1;jettySize=auto;html=1;" edge="1" parent="1" source="TnObYNsA2F8wjeoy1vqR-3">
          <mxGeometry relative="1" as="geometry">
            <mxPoint x="115" y="230" as="targetPoint" />
            <Array as="points">
              <mxPoint x="115" y="210" />
              <mxPoint x="116" y="210" />
            </Array>
          </mxGeometry>
        </mxCell>
        <mxCell id="TnObYNsA2F8wjeoy1vqR-15" style="edgeStyle=orthogonalEdgeStyle;rounded=0;orthogonalLoop=1;jettySize=auto;html=1;" edge="1" parent="1" source="TnObYNsA2F8wjeoy1vqR-3">
          <mxGeometry relative="1" as="geometry">
            <mxPoint x="440" y="160" as="targetPoint" />
            <Array as="points">
              <mxPoint x="316" y="160" />
              <mxPoint x="316" y="161" />
            </Array>
          </mxGeometry>
        </mxCell>
        <mxCell id="TnObYNsA2F8wjeoy1vqR-3" value="New User?" style="rhombus;whiteSpace=wrap;html=1;fillColor=#d5e8d4;strokeColor=#82b366;" vertex="1" parent="1">
          <mxGeometry x="47.5" y="120" width="135" height="80" as="geometry" />
        </mxCell>
        <mxCell id="TnObYNsA2F8wjeoy1vqR-7" style="edgeStyle=orthogonalEdgeStyle;rounded=0;orthogonalLoop=1;jettySize=auto;html=1;" edge="1" parent="1" source="TnObYNsA2F8wjeoy1vqR-6">
          <mxGeometry relative="1" as="geometry">
            <mxPoint x="110" y="310" as="targetPoint" />
          </mxGeometry>
        </mxCell>
        <mxCell id="TnObYNsA2F8wjeoy1vqR-6" value="Recognise the face" style="shape=parallelogram;perimeter=parallelogramPerimeter;whiteSpace=wrap;html=1;fixedSize=1;fillColor=#f8cecc;strokeColor=#b85450;" vertex="1" parent="1">
          <mxGeometry x="30" y="230" width="160" height="50" as="geometry" />
        </mxCell>
        <mxCell id="TnObYNsA2F8wjeoy1vqR-9" style="edgeStyle=orthogonalEdgeStyle;rounded=0;orthogonalLoop=1;jettySize=auto;html=1;" edge="1" parent="1" source="TnObYNsA2F8wjeoy1vqR-8">
          <mxGeometry relative="1" as="geometry">
            <mxPoint x="110" y="420" as="targetPoint" />
          </mxGeometry>
        </mxCell>
        <mxCell id="TnObYNsA2F8wjeoy1vqR-8" value="Face Recognised" style="rhombus;whiteSpace=wrap;html=1;fillColor=#d5e8d4;strokeColor=#82b366;" vertex="1" parent="1">
          <mxGeometry x="45" y="310" width="130" height="80" as="geometry" />
        </mxCell>
        <mxCell id="TnObYNsA2F8wjeoy1vqR-12" style="edgeStyle=orthogonalEdgeStyle;rounded=0;orthogonalLoop=1;jettySize=auto;html=1;" edge="1" parent="1">
          <mxGeometry relative="1" as="geometry">
            <mxPoint x="107.5" y="500" as="targetPoint" />
            <mxPoint x="107.5" y="470" as="sourcePoint" />
          </mxGeometry>
        </mxCell>
        <mxCell id="TnObYNsA2F8wjeoy1vqR-13" value="End" style="ellipse;whiteSpace=wrap;html=1;fillColor=#ffe6cc;strokeColor=#d79b00;" vertex="1" parent="1">
          <mxGeometry x="40" y="500" width="130" height="60" as="geometry" />
        </mxCell>
        <mxCell id="TnObYNsA2F8wjeoy1vqR-16" value="Give your photograph" style="rounded=0;whiteSpace=wrap;html=1;fillColor=#e1d5e7;strokeColor=#9673a6;" vertex="1" parent="1">
          <mxGeometry x="440" y="135" width="280" height="50" as="geometry" />
        </mxCell>
        <mxCell id="TnObYNsA2F8wjeoy1vqR-21" style="edgeStyle=orthogonalEdgeStyle;rounded=0;orthogonalLoop=1;jettySize=auto;html=1;" edge="1" parent="1" source="TnObYNsA2F8wjeoy1vqR-18" target="TnObYNsA2F8wjeoy1vqR-6">
          <mxGeometry relative="1" as="geometry" />
        </mxCell>
        <mxCell id="TnObYNsA2F8wjeoy1vqR-18" value="Store the face&lt;div&gt;data in floder&lt;/div&gt;&lt;div&gt;on your name&lt;/div&gt;" style="rounded=0;whiteSpace=wrap;html=1;fillColor=#e1d5e7;strokeColor=#9673a6;" vertex="1" parent="1">
          <mxGeometry x="440" y="220" width="280" height="70" as="geometry" />
        </mxCell>
        <mxCell id="TnObYNsA2F8wjeoy1vqR-23" value="" style="endArrow=none;html=1;rounded=0;exitX=0.5;exitY=0;exitDx=0;exitDy=0;entryX=0.5;entryY=1;entryDx=0;entryDy=0;" edge="1" parent="1" source="TnObYNsA2F8wjeoy1vqR-18" target="TnObYNsA2F8wjeoy1vqR-16">
          <mxGeometry width="50" height="50" relative="1" as="geometry">
            <mxPoint x="550" y="230" as="sourcePoint" />
            <mxPoint x="600" y="180" as="targetPoint" />
          </mxGeometry>
        </mxCell>
        <mxCell id="TnObYNsA2F8wjeoy1vqR-25" value="" style="endArrow=none;html=1;rounded=0;exitX=0.931;exitY=0.478;exitDx=0;exitDy=0;exitPerimeter=0;" edge="1" parent="1">
          <mxGeometry width="50" height="50" relative="1" as="geometry">
            <mxPoint x="174.99999999999997" y="348.24" as="sourcePoint" />
            <mxPoint x="788.97" y="340" as="targetPoint" />
            <Array as="points">
              <mxPoint x="338.97" y="348" />
            </Array>
          </mxGeometry>
        </mxCell>
        <mxCell id="TnObYNsA2F8wjeoy1vqR-26" value="" style="endArrow=none;html=1;rounded=0;" edge="1" parent="1">
          <mxGeometry width="50" height="50" relative="1" as="geometry">
            <mxPoint x="790" y="340" as="sourcePoint" />
            <mxPoint x="790" y="60" as="targetPoint" />
          </mxGeometry>
        </mxCell>
        <mxCell id="TnObYNsA2F8wjeoy1vqR-27" value="" style="endArrow=none;html=1;rounded=0;" edge="1" parent="1">
          <mxGeometry width="50" height="50" relative="1" as="geometry">
            <mxPoint x="580" y="60" as="sourcePoint" />
            <mxPoint x="790" y="60" as="targetPoint" />
          </mxGeometry>
        </mxCell>
        <mxCell id="TnObYNsA2F8wjeoy1vqR-28" value="" style="endArrow=classic;html=1;rounded=0;entryX=0.5;entryY=0;entryDx=0;entryDy=0;" edge="1" parent="1" target="TnObYNsA2F8wjeoy1vqR-16">
          <mxGeometry width="50" height="50" relative="1" as="geometry">
            <mxPoint x="580" y="60" as="sourcePoint" />
            <mxPoint x="460" y="210" as="targetPoint" />
          </mxGeometry>
        </mxCell>
        <mxCell id="TnObYNsA2F8wjeoy1vqR-29" value="Stored in csv file&lt;div&gt;with registration&amp;nbsp;&lt;/div&gt;&lt;div&gt;number and date&lt;/div&gt;&lt;div&gt;time of entry&lt;/div&gt;" style="shape=parallelogram;perimeter=parallelogramPerimeter;whiteSpace=wrap;html=1;fixedSize=1;fillColor=#f8cecc;strokeColor=#b85450;" vertex="1" parent="1">
          <mxGeometry x="38.75" y="420" width="142.5" height="60" as="geometry" />
        </mxCell>
      </root>
    </mxGraphModel>
  </diagram>
</mxfile>
